REM DIRINDEX 1\2,1\3
REM DIRNAME cjc039,folder01,folder02
TITLE ""
FILE "1121-1140.mp3" MP3
  TRACK 01 AUDIO
    TITLE "0:"
    INDEX 01 00:00:00
  TRACK 02 AUDIO
    TITLE "2:cjc039_1241"
    INDEX 01 00:00:27
  TRACK 03 AUDIO
    TITLE "0:"
    INDEX 01 00:01:30
  TRACK 04 AUDIO
    TITLE "3:cjc039_1242"
    INDEX 01 00:02:12
  TRACK 05 AUDIO
    TITLE "0:"
    INDEX 01 00:06:24
  TRACK 06 AUDIO
    TITLE "2:cjc039_1243"
    INDEX 01 00:08:05
  TRACK 07 AUDIO
    TITLE "0:"
    INDEX 01 00:09:36
  TRACK 08 AUDIO
    TITLE "3:cjc039_1244"
    INDEX 01 00:10:06
  TRACK 09 AUDIO
    TITLE "0:"
    INDEX 01 00:14:07
  TRACK 10 AUDIO
    TITLE "2:cjc039_1245"
    INDEX 01 00:15:58
  TRACK 11 AUDIO
    TITLE "0:"
    INDEX 01 00:16:61
  TRACK 12 AUDIO
    TITLE "3:cjc039_1246"
    INDEX 01 00:17:41
  TRACK 13 AUDIO
    TITLE "0:"
    INDEX 01 00:21:25
  TRACK 14 AUDIO
    TITLE "2:cjc039_1247"
    INDEX 01 00:22:74
  TRACK 15 AUDIO
    TITLE "0:"
    INDEX 01 00:24:24
  TRACK 16 AUDIO
    TITLE "3:cjc039_1248"
    INDEX 01 00:24:72
  TRACK 17 AUDIO
    TITLE "0:"
    INDEX 01 00:29:17
  TRACK 18 AUDIO
    TITLE "2:cjc039_1249"
    INDEX 01 00:31:00
  TRACK 19 AUDIO
    TITLE "0:"
    INDEX 01 00:32:11
  TRACK 20 AUDIO
    TITLE "3:cjc039_1250"
    INDEX 01 00:32:58
  TRACK 21 AUDIO
    TITLE "0:"
    INDEX 01 00:36:19
  TRACK 22 AUDIO
    TITLE "2:cjc039_1251"
    INDEX 01 00:37:65
  TRACK 23 AUDIO
    TITLE "0:"
    INDEX 01 00:38:73
  TRACK 24 AUDIO
    TITLE "3:cjc039_1252"
    INDEX 01 00:39:54
  TRACK 25 AUDIO
    TITLE "0:"
    INDEX 01 00:43:56
  TRACK 26 AUDIO
    TITLE "2:cjc039_1253"
    INDEX 01 00:45:32
  TRACK 27 AUDIO
    TITLE "0:"
    INDEX 01 00:46:45
  TRACK 28 AUDIO
    TITLE "3:cjc039_1254"
    INDEX 01 00:47:27
  TRACK 29 AUDIO
    TITLE "0:"
    INDEX 01 00:51:16
  TRACK 30 AUDIO
    TITLE "2:cjc039_1255"
    INDEX 01 00:52:69
  TRACK 31 AUDIO
    TITLE "0:"
    INDEX 01 00:54:15
  TRACK 32 AUDIO
    TITLE "3:cjc039_1256"
    INDEX 01 00:54:62
  TRACK 33 AUDIO
    TITLE "0:"
    INDEX 01 00:59:43
  TRACK 34 AUDIO
    TITLE "2:cjc039_1257"
    INDEX 01 01:01:23
  TRACK 35 AUDIO
    TITLE "0:"
    INDEX 01 01:02:24
  TRACK 36 AUDIO
    TITLE "3:cjc039_1258"
    INDEX 01 01:03:04
  TRACK 37 AUDIO
    TITLE "0:"
    INDEX 01 01:07:14
  TRACK 38 AUDIO
    TITLE "2:cjc039_1259"
    INDEX 01 01:08:64
  TRACK 39 AUDIO
    TITLE "0:"
    INDEX 01 01:09:73
  TRACK 40 AUDIO
    TITLE "3:cjc039_1260"
    INDEX 01 01:10:47
  TRACK 41 AUDIO
    TITLE "0:"
    INDEX 01 01:14:14
  TRACK 42 AUDIO
    TITLE "2:cjc039_1261"
    INDEX 01 01:15:66
  TRACK 43 AUDIO
    TITLE "0:"
    INDEX 01 01:17:14
  TRACK 44 AUDIO
    TITLE "3:cjc039_1262"
    INDEX 01 01:17:69
  TRACK 45 AUDIO
    TITLE "0:"
    INDEX 01 01:20:71
  TRACK 46 AUDIO
    TITLE "2:cjc039_1263"
    INDEX 01 01:22:58
  TRACK 47 AUDIO
    TITLE "0:"
    INDEX 01 01:23:69
  TRACK 48 AUDIO
    TITLE "3:cjc039_1264"
    INDEX 01 01:24:49
  TRACK 49 AUDIO
    TITLE "0:"
    INDEX 01 01:27:42
  TRACK 50 AUDIO
    TITLE "2:cjc039_1265"
    INDEX 01 01:29:17
  TRACK 51 AUDIO
    TITLE "0:"
    INDEX 01 01:30:28
  TRACK 52 AUDIO
    TITLE "3:cjc039_1266"
    INDEX 01 01:31:10
  TRACK 53 AUDIO
    TITLE "0:"
    INDEX 01 01:35:22
  TRACK 54 AUDIO
    TITLE "2:cjc039_1267"
    INDEX 01 01:36:68
  TRACK 55 AUDIO
    TITLE "0:"
    INDEX 01 01:38:26
  TRACK 56 AUDIO
    TITLE "3:cjc039_1268"
    INDEX 01 01:38:71
  TRACK 57 AUDIO
    TITLE "0:"
    INDEX 01 01:42:57
  TRACK 58 AUDIO
    TITLE "2:cjc039_1269"
    INDEX 01 01:44:34
  TRACK 59 AUDIO
    TITLE "0:"
    INDEX 01 01:45:55
  TRACK 60 AUDIO
    TITLE "3:cjc039_1270"
    INDEX 01 01:46:33
  TRACK 61 AUDIO
    TITLE "0:"
    INDEX 01 01:50:45
  TRACK 62 AUDIO
    TITLE "2:cjc039_1271"
    INDEX 01 01:52:24
  TRACK 63 AUDIO
    TITLE "0:"
    INDEX 01 01:53:53
  TRACK 64 AUDIO
    TITLE "3:cjc039_1272"
    INDEX 01 01:54:23
  TRACK 65 AUDIO
    TITLE "0:"
    INDEX 01 01:59:53
  TRACK 66 AUDIO
    TITLE "2:cjc039_1273"
    INDEX 01 02:01:27
  TRACK 67 AUDIO
    TITLE "0:"
    INDEX 01 02:02:34
  TRACK 68 AUDIO
    TITLE "3:cjc039_1274"
    INDEX 01 02:03:12
  TRACK 69 AUDIO
    TITLE "0:"
    INDEX 01 02:06:71
  TRACK 70 AUDIO
    TITLE "2:cjc039_1275"
    INDEX 01 02:08:45
  TRACK 71 AUDIO
    TITLE "0:"
    INDEX 01 02:09:60
  TRACK 72 AUDIO
    TITLE "3:cjc039_1276"
    INDEX 01 02:10:42
  TRACK 73 AUDIO
    TITLE "0:"
    INDEX 01 02:13:38
  TRACK 74 AUDIO
    TITLE "2:cjc039_1277"
    INDEX 01 02:15:17
  TRACK 75 AUDIO
    TITLE "0:"
    INDEX 01 02:18:16
  TRACK 76 AUDIO
    TITLE "3:cjc039_1278"
    INDEX 01 02:18:70
  TRACK 77 AUDIO
    TITLE "0:"
    INDEX 01 02:23:19
  TRACK 78 AUDIO
    TITLE "2:cjc039_1279"
    INDEX 01 02:24:63
  TRACK 79 AUDIO
    TITLE "0:"
    INDEX 01 02:26:11
  TRACK 80 AUDIO
    TITLE "3:cjc039_1280"
    INDEX 01 02:26:54
  TRACK 81 AUDIO
    TITLE "0:"
    INDEX 01 02:31:01
